<?xml version="1.0" standalone="no"?>
<!DOCTYPE svg PUBLIC "-//W3C//DTD SVG 20010904//EN"
 "http://www.w3.org/TR/2001/REC-SVG-20010904/DTD/svg10.dtd">
<svg version="1.0" xmlns="http://www.w3.org/2000/svg"
 width="373.000000pt" height="226.000000pt" viewBox="0 0 373.000000 226.000000"
 preserveAspectRatio="xMidYMid meet">
<metadata>
Created by potrace 1.16, written by Peter Selinger 2001-2019
</metadata>
<g transform="translate(0.000000,226.000000) scale(0.100000,-0.100000)"
fill="#000000" stroke="none">
<path d="M1337 2190 c-22 -18 -29 -19 -47 -8 -30 19 -53 0 -63 -52 -7 -34 -4
-62 14 -127 19 -71 20 -89 10 -122 -15 -50 -14 -103 2 -124 11 -16 50 -23 182
-31 47 -3 121 -39 221 -107 85 -58 186 -106 243 -115 48 -8 51 -11 80 -89 29
-77 139 -243 192 -288 30 -26 44 -48 53 -84 7 -27 24 -67 38 -89 34 -53 115
-132 159 -154 47 -24 147 -42 223 -39 55 2 61 0 58 -17 -5 -23 -56 -121 -80
-151 -15 -18 -188 -58 -1292 -298 -701 -152 -1288 -280 -1305 -285 -17 -4 800
-9 1838 -9 l1867 -1 0 455 c0 441 -1 455 -19 446 -17 -9 -19 -5 -24 52 -9 91
-42 208 -95 332 -26 61 -45 116 -44 123 4 16 -66 136 -100 173 -36 39 -171
136 -235 170 -59 31 -137 39 -172 18 -27 -18 -67 -3 -79 28 -6 16 -18 56 -25
90 -19 82 -71 168 -115 189 -66 31 -184 -4 -259 -79 -52 -50 -59 -96 -18 -123
17 -11 25 -25 25 -45 0 -15 9 -36 19 -46 11 -10 21 -31 23 -48 2 -22 9 -31 25
-33 12 -2 36 -19 55 -37 28 -29 40 -35 77 -35 41 0 43 -1 29 -17 -9 -10 -35
-60 -59 -110 -24 -51 -47 -93 -50 -93 -4 0 -9 12 -12 28 -14 68 -155 231 -282
325 -109 81 -163 107 -224 107 -42 0 -72 12 -198 76 l-148 75 -70 -6 c-38 -3
-106 -2 -150 3 -44 5 -94 5 -112 1 -21 -4 -36 -3 -41 5 -14 18 -32 91 -32 128
0 58 -36 75 -83 38z m2075 -882 c8 -13 25 -49 36 -81 12 -31 35 -83 51 -115
26 -51 71 -191 71 -219 0 -6 -34 -18 -75 -28 -51 -11 -80 -23 -92 -38 -14 -18
-78 -39 -297 -100 -153 -43 -280 -76 -282 -75 -2 2 12 42 31 88 34 84 34 85
72 88 26 2 45 11 59 28 19 23 23 25 43 12 20 -12 25 -10 52 20 l30 33 40 -20
c70 -37 87 -28 133 69 30 62 49 129 66 240 14 85 25 120 39 120 5 0 15 -10 23
-22z"/>
</g>
</svg>
